<svg width="45" height="45" viewBox="0 0 300 300" fill="none" xmlns="http://www.w3.org/2000/svg">
<g clip-path="url(#clip0_1866_22505)">
<path fill-rule="evenodd" clip-rule="evenodd" d="M300 75C300 33.585 266.415 0 225 0C179.19 0 120.81 0 75 0C33.585 0 0 33.585 0 75C0 120.81 0 179.19 0 225C0 266.415 33.585 300 75 300C120.81 300 179.19 300 225 300C266.415 300 300 266.415 300 225C300 179.19 300 120.81 300 75Z" fill="url(#paint0_radial_1866_22505)"/>
<path d="M194.368 45.0787C225.732 45.3787 254.606 72.3028 254.921 105.632C255.026 135.211 255.026 164.789 254.921 194.368C254.621 225.612 227.697 254.606 194.368 254.921C164.789 255.026 135.211 255.026 105.632 254.921C74.2527 254.621 45.3937 227.697 45.0787 194.368C44.9738 164.789 44.9738 135.211 45.0787 105.632C45.3637 74.2377 72.2278 45.3937 105.632 45.0787C135.211 44.9738 164.789 44.9738 194.368 45.0787ZM106.037 59.2532C81.6924 59.3282 59.4932 80.4325 59.2532 105.722C59.1632 135.241 59.1632 164.759 59.2532 194.278C59.4782 218.353 80.0725 240.507 105.722 240.747C135.241 240.837 164.759 240.837 194.278 240.747C218.413 240.522 240.507 219.927 240.747 194.278C240.837 164.759 240.837 135.241 240.747 105.722C240.522 81.4824 219.523 59.4932 194.278 59.2532C164.864 59.1632 135.451 59.2532 106.037 59.2532Z" fill="white"/>
<path d="M150.366 97C174.854 97.2272 197.677 116.126 202.157 140.341C205.35 157.605 199.326 176.322 186.613 188.468C172.462 201.945 150.563 206.761 131.796 199.886C110.819 192.208 96.0627 170.083 97.0464 147.671C98.242 120.897 121.882 97.0909 150.003 97C150.124 97 150.245 97 150.366 97ZM149.76 111.341C132.28 111.508 115.798 124.773 112.166 142.007C108.488 159.437 118.507 178.776 134.959 185.727C152.924 193.329 176.125 184.803 184.797 167.054C193.772 148.716 185.312 123.804 166.363 114.945C161.202 112.537 155.466 111.326 149.76 111.341Z" fill="white"/>
<path fill-rule="evenodd" clip-rule="evenodd" d="M218 93.1473C218 90.188 216.819 87.3513 214.734 85.266C212.649 83.1807 209.812 82 206.853 82C206.623 82 206.377 82 206.147 82C203.188 82 200.351 83.1807 198.266 85.266C196.181 87.3513 195 90.188 195 93.1473C195 93.27 195 93.3773 195 93.5C195 96.5513 196.211 99.48 198.373 101.627C200.52 103.789 203.449 105 206.5 105C212.848 105 218 99.848 218 93.5C218 93.3773 218 93.27 218 93.1473Z" fill="white"/>
</g>
<defs>
<radialGradient id="paint0_radial_1866_22505" cx="0" cy="0" r="1" gradientUnits="userSpaceOnUse" gradientTransform="translate(0 292.5) scale(418.995)">
<stop stop-color="#FF8100"/>
<stop offset="0.19" stop-color="#FF7209"/>
<stop offset="0.32" stop-color="#F55E16"/>
<stop offset="0.48" stop-color="#D92938"/>
<stop offset="1" stop-color="#9100FF"/>
</radialGradient>
<clipPath id="clip0_1866_22505">
<rect width="300" height="300" fill="white"/>
</clipPath>
</defs>
</svg>
